<svg xmlns="http://www.w3.org/2000/svg" viewBox="0 0 100 100" role="img" aria-label="Bir Camps">
  <defs>
    <linearGradient id="bcSky" x1="0" y1="0" x2="0" y2="1">
      <stop offset="0" stop-color="#21343a"/>
      <stop offset=".5" stop-color="#26392f"/>
      <stop offset="1" stop-color="#0f1d17"/>
    </linearGradient>
    <radialGradient id="bcSun" cx="50%" cy="45%" r="55%">
      <stop offset="0" stop-color="#ffe9c2"/>
      <stop offset=".5" stop-color="#f2c389"/>
      <stop offset="1" stop-color="#e6a15a"/>
    </radialGradient>
    <radialGradient id="bcGlow" cx="50%" cy="50%" r="50%">
      <stop offset="0" stop-color="#f2c389" stop-opacity=".55"/>
      <stop offset="1" stop-color="#f2c389" stop-opacity="0"/>
    </radialGradient>
    <clipPath id="bcDisc"><circle cx="50" cy="50" r="47"/></clipPath>
  </defs>

  <circle cx="50" cy="50" r="47" fill="url(#bcSky)"/>

  <g clip-path="url(#bcDisc)">
    <circle cx="58" cy="43" r="30" fill="url(#bcGlow)"/>
    <circle cx="58" cy="43" r="16" fill="url(#bcSun)"/>

    <path d="M-2 68 C14 58 26 64 40 56 C54 48 66 62 80 56 C90 52 99 60 102 58 L102 101 L-2 101Z" fill="#1c2e29"/>
    <path d="M-2 79 C12 71 28 77 42 71 C58 65 70 77 84 72 C94 69 100 75 102 74 L102 101 L-2 101Z" fill="#13211b"/>
    <path d="M-2 90 C16 84 30 90 46 86 C62 82 76 90 92 87 C98 86 100 88 102 88 L102 101 L-2 101Z" fill="#0b1310"/>

    <path d="M30 88 L36 79 L42 88 Z" fill="#0b1310" stroke="#e6a15a" stroke-width="1" stroke-linejoin="round"/>
    <line x1="36" y1="79" x2="36" y2="88" stroke="#e6a15a" stroke-width="1"/>

    <path d="M20 29 Q33 20 47 29 Q33 25 20 29 Z" fill="#eef2ec"/>
    <line x1="23" y1="30" x2="33" y2="43" stroke="#eef2ec" stroke-width="1.3" stroke-linecap="round"/>
    <line x1="44" y1="30" x2="34" y2="43" stroke="#eef2ec" stroke-width="1.3" stroke-linecap="round"/>
    <circle cx="33.5" cy="44.5" r="1.7" fill="#eef2ec"/>
  </g>

  <circle cx="50" cy="50" r="47" fill="none" stroke="#e6a15a" stroke-width="1.6"/>
</svg>
